<svg version="1.2" xmlns="http://www.w3.org/2000/svg" viewBox="0 0 180 180" width="180" height="180"><defs><linearGradient id="P" gradientUnits="userSpaceOnUse"/><linearGradient id="g1" x2="1" href="#P" gradientTransform="matrix(180,180,-180,180,0,0)"><stop stop-color="#fff"/><stop offset="1" stop-color="#f1f3f4"/></linearGradient></defs><style>tspan{white-space:pre}.a{fill:url(#g1)}.b{fill:#2e7d32}.c{font-size: 9px;fill: #666666;font-family: ""}</style><path fill-rule="evenodd" class="a" d="m18 0h144c9.9 0 18 8.1 18 18v144c0 9.9-8.1 18-18 18h-144c-9.9 0-18-8.1-18-18v-144c0-9.9 8.1-18 18-18z"/><path class="b" d="m149.6 109.1c6.4-1.4 9.7-4.7 9.8-10 0-5.1-3.2-8.3-10.8-10.8-5.7-1.9-8.5-3.2-9.2-4.6-1.6-2.9 0.3-6.1 4.3-7.2 2.8-0.7 6 0 9.3 2.3 2.9 2 4.3 2 6.3 0.1 1.9-1.8 1.5-2.6-2.4-5.3-3.8-2.5-8.5-3.9-12.3-3.5-3.3 0.3-7.6 2.1-9.6 3.8-1.8 1.7-3.3 5.3-3.3 7.9 0 5 3.7 8.3 12.4 11.2 6.3 2.1 8.8 4 8.3 6.2-0.5 2.2-2.4 3.6-5.1 4.1-2.1 0.2-3 0.1-6-1.5-3.8-1.9-4.8-1.8-6.9 0.4l-1.3 1.4 2.1 1.9c3.4 2.9 10.1 4.6 14.4 3.6z"/><path class="b" d="m49 73.5v3h-5.8-5.7v16 15.9h-3.3-3.3v-15.9-15.9l-5.7-0.2-5.6-0.1 0.1-2.1c0.1-3.8-0.2-3.7 15.4-3.7h13.9z"/><path class="b" d="m52.6 89.5v-19h3.3 3.3v17.9c0 11.3-0.2 18.3-0.6 19-0.4 0.8-1.2 1-3.3 1h-2.7z"/><path class="b" d="m65.3 89.5v-19h13.7 13.8v3 3h-10.5-10.5v5.3 5.2h8.6 8.5v3.3 3.3h-8.5-8.6v4.4 4.4h10.6 10.5l-0.3 2.5c-0.1 1.4-0.6 2.8-1 3-0.4 0.3-6.6 0.5-13.5 0.5h-12.8z"/><path class="b" d="m128 89.5v-19h-3.3-3.3l-0.2 13.7-0.1 13.8-8.5-13.7-8.6-13.6-3.7-0.1-3.7-0.2v17.9c0 11.4 0.2 18.4 0.5 19.1 0.5 0.8 1.2 1 3.3 1h2.8l0.1-13.2 0.2-13.2 8.5 13.1 8.5 13 3.8 0.2 3.7 0.2z"/><text style="transform:matrix(1,0,0,1,90,155)" ><tspan x="-17.2" y="0" class="c">TALARA
</tspan></text></svg>