<svg version="1.2" xmlns="http://www.w3.org/2000/svg" viewBox="0 0 512 512" width="512" height="512"><defs><linearGradient id="P" gradientUnits="userSpaceOnUse"/><linearGradient id="g1" x2="1" href="#P" gradientTransform="matrix(512,512,-512,512,0,0)"><stop stop-color="#fff"/><stop offset=".5" stop-color="#f8f9fa"/><stop offset="1" stop-color="#e9ecef"/></linearGradient></defs><style>tspan{white-space:pre}.a{fill:url(#g1)}.b{fill:none;stroke:#d6d8db;stroke-width:2}.c{fill:#2e7d32}.d{font-size: 24px;fill: #2e7d32;font-family: "Arial"}.e{font-size: 16px;fill: #666666;font-family: "Arial"}</style><path fill-rule="evenodd" class="a" d="m64 0h384c35.3 0 64 28.7 64 64v384c0 35.3-28.7 64-64 64h-384c-35.3 0-64-28.7-64-64v-384c0-35.3 28.7-64 64-64z"/><path fill-rule="evenodd" class="b" d="m64 2h384c34.2 0 62 27.8 62 62v384c0 34.2-27.8 62-62 62h-384c-34.2 0-62-27.8-62-62v-384c0-34.2 27.8-62 62-62z"/><path class="c" d="m407.6 304.7c16.4-3.6 24.8-12.2 24.9-25.5 0.2-13-7.9-21.1-27.4-27.5-14.6-4.8-21.6-8.3-23.4-11.7-4-7.5 0.9-15.5 11.1-18.3 7.1-2 15.1 0 23.6 5.7 7.5 5.1 11 5.1 16 0.5 4.8-4.8 3.9-6.8-6.2-13.6-9.6-6.5-21.7-10-31.3-9-8.4 0.9-19.2 5.3-24.2 9.8-4.7 4.4-8.6 13.3-8.6 19.9 0 12.7 9.4 21.3 31.7 28.7 15.9 5.3 22.4 10.2 21 15.8-1.3 5.5-6.1 9.1-13.1 10.2-5.3 0.7-7.5 0.3-15.1-3.6-9.6-4.9-12.3-4.8-17.6 0.8l-3.4 3.7 5.5 4.7c8.7 7.5 25.6 11.9 36.5 9.4z"/><path class="c" d="m151.7 214v7.7h-14.7-14.7v40.6 40.6h-8.4-8.4v-40.6-40.5l-14.4-0.4-14.3-0.4 0.1-5.2c0.3-9.6-0.2-9.5 39.2-9.5h35.6z"/><path class="c" d="m160.8 254.6v-48.3h8.4 8.4v45.6c0 28.7-0.6 46.5-1.4 48.3-1.1 2.1-3.1 2.7-8.4 2.7h-7z"/><path class="c" d="m193 254.6v-48.3h35 35v7.7 7.7h-26.6-26.6v13.3 13.3h21.7 21.7v8.4 8.4h-21.7-21.7v11.2 11.2h26.7 26.9l-0.8 6.4c-0.3 3.7-1.6 7-2.5 7.7-1.2 0.7-16.7 1.3-34.5 1.3h-32.6z"/><path class="c" d="m352.6 254.6v-48.3h-8.4-8.4l-0.3 35-0.4 35-21.7-34.7-21.7-34.6-9.5-0.4-9.4-0.4v45.6c0 28.8 0.6 46.6 1.4 48.4 1.1 2.1 2.9 2.7 8.4 2.7h7l0.3-33.7 0.4-33.6 21.7 33.3 21.7 33.3 9.5 0.4 9.4 0.4z"/><text style="transform:matrix(1,0,0,1,256,420)" ><tspan x="-45.8" y="0" class="d">TALARA
</tspan></text><text style="transform:matrix(1,0,0,1,256,450)" ><tspan x="-77.9" y="0" class="e">Sistema de Gestión
</tspan></text></svg>