<?xml version="1.0" standalone="no"?>
<!DOCTYPE svg PUBLIC "-//W3C//DTD SVG 20010904//EN"
 "http://www.w3.org/TR/2001/REC-SVG-20010904/DTD/svg10.dtd">
<svg version="1.0" xmlns="http://www.w3.org/2000/svg"
 width="256.000000pt" height="73.000000pt" viewBox="0 0 256.000000 73.000000"
 preserveAspectRatio="xMidYMid meet">

<g transform="translate(0.000000,73.000000) scale(0.100000,-0.100000)"
fill="#000000" stroke="none">
<path d="M2235 713 c-117 -26 -177 -87 -178 -182 -1 -93 57 -151 196 -197 104
-34 154 -59 167 -83 29 -54 -6 -111 -79 -131 -51 -14 -108 0 -169 41 -53 36
-78 36 -114 3 -34 -34 -28 -48 44 -97 69 -46 155 -71 224 -64 60 6 137 38 173
70 33 31 61 95 61 142 0 91 -67 152 -226 205 -114 38 -160 73 -150 113 9 39
43 65 93 73 38 5 54 2 108 -26 69 -35 88 -34 126 6 l24 26 -39 34 c-62 53
-183 85 -261 67z"/>
<path d="M0 645 l0 -55 105 0 105 0 0 -290 0 -290 60 0 60 0 0 290 0 289 103
3 102 3 -1 37 c-2 69 2 68 -280 68 l-254 0 0 -55z"/>
<path d="M600 355 l0 -345 60 0 60 0 0 326 c0 205 -4 332 -10 345 -8 15 -22
19 -60 19 l-50 0 0 -345z"/>
<path d="M830 355 l0 -345 250 0 250 0 0 55 0 55 -190 0 -190 0 0 95 0 95 155
0 155 0 0 60 0 60 -155 0 -155 0 0 80 0 80 191 0 192 0 -6 46 c-2 26 -11 50
-18 55 -8 5 -119 9 -246 9 l-233 0 0 -345z"/>
<path d="M1400 355 l0 -345 60 0 60 0 2 250 3 250 155 -248 155 -247 68 -3 67
-3 0 326 c0 206 -4 333 -10 346 -8 15 -21 19 -60 19 l-50 0 -2 -241 -3 -240
-155 238 -155 238 -68 3 -67 3 0 -346z"/>
</g>
</svg>
